<?xml version="1.0" encoding="UTF-8"?>
<!DOCTYPE svg PUBLIC "-//W3C//DTD SVG 1.1//EN" "http://www.w3.org/Graphics/SVG/1.1/DTD/svg11.dtd">
<svg xmlns="http://www.w3.org/2000/svg" style="background: transparent; background-color: transparent; color-scheme: light dark;" xmlns:xlink="http://www.w3.org/1999/xlink" version="1.1" width="522px" height="522px" viewBox="-0.5 -0.5 522 522"><defs/><g><g data-cell-id="0"><g data-cell-id="1"><g data-cell-id="sJ5oTwRX35-E4n7Mxlfl-2"><g><ellipse cx="261" cy="261" rx="256" ry="256" fill="none" stroke="#00f5ff" stroke-width="10" pointer-events="all" style="stroke: rgb(0, 245, 255);"/><path d="M 56.2 414.6 C 70.2 380.12 129.27 354.8 199.56 353.16 C 204.06 353.92 208.66 352.64 212.12 349.68 C 215.58 346.71 217.54 342.36 217.48 337.8 C 221 305.13 208.62 272.75 184.2 250.76 C 177.98 250.76 172.94 238.15 172.94 222.6 C 172.94 207.05 177.98 194.44 184.2 194.44 C 181.32 171.87 187.96 149.12 202.53 131.63 C 217.1 114.15 238.28 103.52 261 102.28 C 283.72 103.52 304.9 114.15 319.47 131.63 C 334.04 149.12 340.68 171.87 337.8 194.44 C 344.02 194.44 349.06 207.05 349.06 222.6 C 349.06 238.15 344.02 250.76 337.8 250.76 C 313.38 272.75 301 305.13 304.52 337.8 C 304.46 342.36 306.42 346.71 309.88 349.68 C 313.34 352.64 317.94 353.92 322.44 353.16 C 392.73 354.8 451.8 380.12 465.8 414.6" fill="none" stroke="#00f5ff" stroke-width="10" stroke-miterlimit="10" pointer-events="all" style="stroke: rgb(0, 245, 255);"/></g></g></g></g></g></svg>