<?xml version="1.0" encoding="UTF-8"?>
<!DOCTYPE svg PUBLIC "-//W3C//DTD SVG 1.1//EN" "http://www.w3.org/Graphics/SVG/1.1/DTD/svg11.dtd">
<svg xmlns="http://www.w3.org/2000/svg" style="background: transparent; background-color: transparent; color-scheme: light dark;" xmlns:xlink="http://www.w3.org/1999/xlink" version="1.1" width="48px" height="48px" viewBox="-0.5 -0.5 48 48"><defs/><g><g data-cell-id="0"><g data-cell-id="1"><g data-cell-id="EcsStDM56SkO3T12KtMh-5"><g><ellipse cx="24" cy="24" rx="24" ry="24" fill="#00f5ff" stroke="none" pointer-events="all" style="fill: rgb(0, 245, 255);"/></g></g><g data-cell-id="EcsStDM56SkO3T12KtMh-4"><g><rect x="7" y="9" width="35" height="30.36" fill="none" stroke="none" pointer-events="all"/><path d="M 42 24.17 C 42 25.68 41.41 27.06 40.46 28.08 C 40.3 30.24 38.95 32.07 37.07 32.89 L 37.07 32.91 C 34.78 34.27 33.41 36.58 32.99 39.36 L 30.87 39.36 L 30.87 32.91 C 30.88 30.9 31.5 29.62 32.81 28.82 C 33.28 28.55 33.72 28.23 34.09 27.87 C 35.06 28.22 35.91 28.92 36.46 29.9 C 36.57 30.1 36.77 30.2 36.98 30.2 C 37.07 30.2 37.18 30.18 37.27 30.13 C 37.56 29.96 37.66 29.6 37.5 29.3 L 37.49 29.3 C 36.88 28.2 35.95 27.39 34.9 26.9 C 35.44 26.06 35.74 25.06 35.73 23.85 C 35.73 23.84 35.74 23.84 35.74 23.83 C 35.74 23.28 35.66 22.75 35.51 22.25 C 36.75 22.01 37.84 21.37 38.64 20.47 C 38.87 20.23 38.85 19.85 38.61 19.62 C 38.36 19.4 37.99 19.42 37.77 19.66 C 37.07 20.44 36.13 20.96 35.05 21.11 C 34.19 19.48 32.58 18.33 30.7 18.12 C 30.83 17.09 31.29 16.17 31.97 15.47 C 32.2 15.24 32.2 14.86 31.97 14.62 C 31.74 14.39 31.36 14.39 31.13 14.62 C 30.25 15.52 29.66 16.71 29.51 18.04 C 27.3 17.76 25.6 15.86 25.6 13.54 C 25.6 13.21 25.33 12.93 25.01 12.93 C 24.68 12.93 24.41 13.21 24.41 13.54 C 24.41 13.93 24.45 14.3 24.52 14.67 C 23.69 15.41 22.64 15.78 21.6 15.78 C 21.09 15.78 20.57 15.69 20.08 15.5 C 20.08 15.5 20.08 15.5 20.07 15.5 C 19.47 15.28 18.92 14.93 18.44 14.45 C 18.21 14.21 17.83 14.21 17.6 14.45 C 17.37 14.68 17.37 15.06 17.6 15.3 C 18.09 15.79 18.64 16.17 19.22 16.45 C 19.11 17.95 18.25 19.24 17.05 19.97 C 16.35 18.9 15.31 18.05 14.03 17.63 C 13.71 17.53 13.37 17.71 13.28 18.03 C 13.19 18.34 13.35 18.68 13.66 18.78 C 14.61 19.08 15.38 19.68 15.93 20.44 C 15.56 20.54 15.18 20.6 14.78 20.6 C 14.78 20.6 14.78 20.6 14.77 20.6 L 14.72 20.6 C 13.19 20.6 11.79 21.21 10.77 22.22 C 10.53 22.45 10.53 22.84 10.76 23.07 C 10.88 23.19 11.03 23.25 11.19 23.25 C 11.33 23.25 11.48 23.2 11.59 23.08 C 12.4 22.28 13.5 21.8 14.72 21.8 L 14.78 21.8 L 14.78 21.8 L 14.79 21.8 C 17.64 21.8 20.01 19.64 20.38 16.84 C 20.79 16.93 21.2 16.98 21.61 16.98 C 22.77 16.98 23.94 16.61 24.92 15.89 C 25.28 16.73 25.85 17.46 26.54 18.02 C 25.84 18.9 25.42 19.95 25.31 21.02 C 25.01 20.97 24.71 20.94 24.39 20.94 C 23.5 20.94 22.59 21.16 21.74 21.62 C 21.45 21.78 21.34 22.14 21.5 22.43 C 21.61 22.63 21.81 22.75 22.03 22.75 C 22.12 22.75 22.21 22.73 22.3 22.67 C 22.98 22.31 23.69 22.14 24.39 22.14 C 24.71 22.14 25.02 22.18 25.31 22.24 C 25.44 23.46 25.96 24.65 26.85 25.6 C 26.97 25.73 27.13 25.79 27.28 25.79 C 27.42 25.79 27.57 25.74 27.69 25.62 C 27.93 25.39 27.94 25.01 27.71 24.77 L 27.71 24.77 C 26.91 23.92 26.49 22.84 26.47 21.74 C 26.47 21.73 26.47 21.71 26.47 21.7 C 26.47 21.68 26.47 21.65 26.47 21.63 C 26.47 20.57 26.83 19.52 27.54 18.67 C 28.3 19.05 29.15 19.28 30.07 19.28 C 30.07 19.28 30.07 19.28 30.08 19.28 C 30.08 19.28 30.08 19.28 30.09 19.28 C 32.55 19.29 34.54 21.31 34.55 23.81 C 34.08 23.68 33.6 23.62 33.11 23.62 C 32.4 23.62 31.69 23.75 31 24.04 C 30.69 24.17 30.55 24.52 30.67 24.82 C 30.8 25.13 31.14 25.28 31.44 25.15 C 32 24.93 32.56 24.82 33.11 24.82 C 33.56 24.82 34 24.89 34.42 25.02 C 34.27 25.69 33.99 26.23 33.55 26.71 C 33.51 26.74 33.48 26.78 33.46 26.82 C 33.12 27.15 32.71 27.46 32.21 27.77 C 30.5 28.79 29.67 30.64 29.69 32.9 L 29.69 39.34 L 27.66 39.34 L 27.66 33.23 C 27.66 30.98 26.27 28.84 24.52 28.08 C 23.69 27.75 22.82 27.2 22.18 26.48 C 21.28 27.1 20.19 27.47 19.03 27.47 C 17.86 27.47 16.77 27.11 15.87 26.49 C 14.98 27.09 13.9 27.44 12.74 27.44 C 9.56 27.44 7 24.83 7 21.6 C 7 19.2 8.43 17.13 10.49 16.24 C 11.04 13.67 13.28 11.75 15.98 11.75 C 16.12 11.75 16.25 11.77 16.39 11.78 C 17.4 10.27 19.11 9.28 21.04 9.28 C 22 9.28 22.9 9.52 23.69 9.95 C 24.58 9.35 25.65 9 26.79 9 C 28.26 9 29.61 9.58 30.61 10.53 C 31.03 10.43 31.47 10.37 31.92 10.37 C 34.2 10.37 36.17 11.76 37.05 13.75 C 39.36 14.46 41.04 16.64 41.04 19.22 C 41.04 19.73 40.97 20.23 40.85 20.71 C 41.57 21.67 42 22.86 42 24.17 Z" fill="#000000" stroke="none" pointer-events="all" style="fill: rgb(0, 0, 0);"/></g></g></g></g></g></svg>